<svg xmlns="http://www.w3.org/2000/svg" viewBox="0 0 38 38" width="38" height="38">
  <rect x="1" y="1" width="36" height="36" rx="8" ry="8" fill="#000"/>
  <path d="M24.5 9.5c.4 2.6 2 4.4 4.5 4.7v3.3c-1.7 0-3.3-.5-4.5-1.4v6.7c0 4.2-3.4 7.6-7.5 7.6s-7.5-3.4-7.5-7.6c0-4.2 3.4-7.6 7.5-7.6.5 0 .9 0 1.3.1v3.5c-.4-.1-.8-.2-1.3-.2-2.3 0-4.2 1.9-4.2 4.2s1.9 4.2 4.2 4.2 4.2-1.9 4.2-4.2V9.5h3.3z" fill="#25F4EE" transform="translate(-1.5 -1)"/>
  <path d="M24.5 9.5c.4 2.6 2 4.4 4.5 4.7v3.3c-1.7 0-3.3-.5-4.5-1.4v6.7c0 4.2-3.4 7.6-7.5 7.6s-7.5-3.4-7.5-7.6c0-4.2 3.4-7.6 7.5-7.6.5 0 .9 0 1.3.1v3.5c-.4-.1-.8-.2-1.3-.2-2.3 0-4.2 1.9-4.2 4.2s1.9 4.2 4.2 4.2 4.2-1.9 4.2-4.2V9.5h3.3z" fill="#FE2C55" transform="translate(1.5 1)"/>
  <path d="M24.5 9.5c.4 2.6 2 4.4 4.5 4.7v3.3c-1.7 0-3.3-.5-4.5-1.4v6.7c0 4.2-3.4 7.6-7.5 7.6s-7.5-3.4-7.5-7.6c0-4.2 3.4-7.6 7.5-7.6.5 0 .9 0 1.3.1v3.5c-.4-.1-.8-.2-1.3-.2-2.3 0-4.2 1.9-4.2 4.2s1.9 4.2 4.2 4.2 4.2-1.9 4.2-4.2V9.5h3.3z" fill="#fff"/>
</svg>
